<svg id="Layer_1" xmlns="http://www.w3.org/2000/svg" viewBox="0 0 471.58 365.66"><defs></defs><title>Untitled-1</title><path class="cls-1" d="M397.26,403.44C337,316,325.77,307,325.77,274.91a79.69,79.69,0,1,1,159.37,0c0,32.13-11.19,41.1-71.5,128.53a10,10,0,0,1-16.38,0Zm8.19-95.33a33.2,33.2,0,1,0-33.2-33.2A33.2,33.2,0,0,0,405.45,308.11Z" transform="translate(-13.56 -98.97)"/><path class="cls-1" d="M85.06,307.19c-60.3-87.43-71.5-96.4-71.5-128.53a79.69,79.69,0,1,1,159.38,0c0,32.13-11.2,41.1-71.5,128.53a10,10,0,0,1-16.38,0Zm8.19-95.33a33.2,33.2,0,1,0-33.2-33.2A33.19,33.19,0,0,0,93.25,211.86Z" transform="translate(-13.56 -98.97)"/><rect class="cls-1" x="86.24" y="358.58" width="73" height="22" rx="11" transform="translate(104.96 -118.8) rotate(17.75)"/><rect class="cls-1" x="201.99" y="395.64" width="73" height="22" rx="11" transform="translate(121.77 -152.33) rotate(17.75)"/><rect class="cls-1" x="324.53" y="434.87" width="73" height="22" rx="11" transform="translate(139.57 -187.82) rotate(17.75)"/></svg>