<?xml version="1.0" encoding="iso-8859-1"?>
<!-- Generator: Adobe Illustrator 19.0.0, SVG Export Plug-In . SVG Version: 6.00 Build 0)  -->
<svg version="1.1" id="Capa_1" xmlns="http://www.w3.org/2000/svg" xmlns:xlink="http://www.w3.org/1999/xlink" x="0px" y="0px"
	 viewBox="0 0 511.999 511.999" style="enable-background:new 0 0 511.999 511.999;" xml:space="preserve">
<g>
	<g>
		<path d="M422.004,6.01c-38.596,0-69.997,31.426-69.997,70.053v1.533c0,19.088,10.063,40.332,29.91,63.144
			c13.494,15.509,26.944,26.441,27.51,26.899l12.577,10.173l12.578-10.173c0.566-0.458,14.016-11.39,27.51-26.899
			c19.847-22.812,29.91-44.057,29.91-63.144v-1.533C492.001,37.436,460.6,6.01,422.004,6.01z M452.002,77.596
			c0,13.036-15.008,32.701-29.989,47.563c-14.824-14.768-30.009-34.639-30.009-47.563v-1.533c0-16.572,13.457-30.055,29.999-30.055
			c16.541,0,29.999,13.482,29.999,30.055V77.596z"/>
	</g>
</g>
<g>
	<g>
		<path d="M139.994,100.924c-33.083,0-59.998,26.915-59.998,59.998s26.915,59.997,59.998,59.997s59.998-26.915,59.998-59.997
			S173.077,100.924,139.994,100.924z M139.994,180.921c-11.028,0-19.999-8.972-19.999-19.999c0-11.028,8.972-19.999,19.999-19.999
			s19.999,8.972,19.999,19.999C159.993,171.949,151.022,180.921,139.994,180.921z"/>
	</g>
</g>
<g>
	<g>
		<path d="M139.994,18.961C62.801,18.961,0,81.731,0,158.887v3.673c0,38.809,21.842,83.551,64.919,132.98
			c30.795,35.336,61.229,60.032,62.51,61.065l12.565,10.146l12.563-10.146c1.281-1.034,31.716-25.729,62.51-61.065
			c43.078-49.429,64.92-94.17,64.92-132.98v-3.673C279.989,81.731,217.187,18.961,139.994,18.961z M239.99,162.56
			c0,52.153-63.588,119.715-99.931,152.142c-11.07-9.921-28.056-26.016-44.985-45.441c-36.031-41.343-55.076-78.24-55.076-106.701
			v-3.673c0-55.101,44.858-99.928,99.996-99.928s99.996,44.827,99.996,99.928V162.56z"/>
	</g>
</g>
<g>
	<g>
		<circle cx="492" cy="347.995" r="19.999"/>
	</g>
</g>
<g>
	<g>
		<circle cx="492" cy="416.992" r="19.999"/>
	</g>
</g>
<g>
	<g>
		<circle cx="492" cy="485.99" r="19.999"/>
	</g>
</g>
<g>
	<g>
		<circle cx="352.006" cy="210.001" r="19.999"/>
	</g>
</g>
<g>
	<g>
		<circle cx="422.003" cy="347.995" r="19.999"/>
	</g>
</g>
<g>
	<g>
		<circle cx="422.003" cy="210.001" r="19.999"/>
	</g>
</g>
<g>
	<g>
		<circle cx="352.006" cy="347.995" r="19.999"/>
	</g>
</g>
<g>
	<g>
		<circle cx="352.006" cy="278.998" r="19.999"/>
	</g>
</g>
<g>
	<g>
		<circle cx="422.003" cy="485.99" r="19.999"/>
	</g>
</g>
<g>
	<g>
		<circle cx="352.006" cy="485.99" r="19.999"/>
	</g>
</g>
<g>
	<g>
		<circle cx="282.008" cy="485.99" r="19.999"/>
	</g>
</g>
<g>
	<g>
		<circle cx="212.011" cy="485.99" r="19.999"/>
	</g>
</g>
<g>
	<g>
		<circle cx="142.014" cy="485.99" r="19.999"/>
	</g>
</g>
<g>
	<g>
		<circle cx="142.014" cy="416.992" r="19.999"/>
	</g>
</g>
<g>
</g>
<g>
</g>
<g>
</g>
<g>
</g>
<g>
</g>
<g>
</g>
<g>
</g>
<g>
</g>
<g>
</g>
<g>
</g>
<g>
</g>
<g>
</g>
<g>
</g>
<g>
</g>
<g>
</g>
</svg>
