<svg id="Layer_1" enable-background="new 0 0 512 512" height="512" viewBox="0 0 512 512" width="512" xmlns="http://www.w3.org/2000/svg"><g><path d="m512 256c0 68.38-26.63 132.67-74.98 181.02s-112.64 74.98-181.02 74.98-132.67-26.63-181.02-74.98c-48.35-48.35-74.98-112.64-74.98-181.02s26.63-132.67 74.98-181.02 112.64-74.98 181.02-74.98 132.67 26.63 181.02 74.98 74.98 112.64 74.98 181.02z" fill="#f3d4b7"/><path d="m512 256c0 68.38-26.63 132.67-74.98 181.02s-112.64 74.98-181.02 74.98c-5.36 0-10.69-.16-16-.49 62.36-3.82 120.46-29.93 165.02-74.49 48.35-48.35 74.98-112.64 74.98-181.02s-26.63-132.67-74.98-181.02c-44.56-44.56-102.66-70.67-165.02-74.49 5.31-.33 10.64-.49 16-.49 68.38 0 132.67 26.63 181.02 74.98s74.98 112.64 74.98 181.02z" fill="#e1c3a7"/><path d="m256 240c-22.056 0-40-17.944-40-40s17.944-40 40-40 40 17.944 40 40c0 8.836 7.163 16 16 16s16-7.164 16-16c0-34.201-23.978-62.888-56-70.186v-17.814c0-8.836-7.163-16-16-16s-16 7.164-16 16v17.814c-32.022 7.298-56 35.985-56 70.186 0 39.701 32.299 72 72 72 22.056 0 40 17.944 40 40s-17.944 40-40 40-40-17.944-40-40c0-8.836-7.163-16-16-16s-16 7.164-16 16c0 34.201 23.978 62.888 56 70.186v17.814c0 8.836 7.163 16 16 16s16-7.164 16-16v-17.814c32.022-7.298 56-35.985 56-70.186 0-39.701-32.299-72-72-72z" fill="#b59f89"/></g></svg>