<svg id="Layer_1" xmlns="http://www.w3.org/2000/svg" viewBox="0 0 484.28 198.54"><title>dot_loading</title><path class="cls-1" d="M63,346.72q0-20.91,6.88-36.8a55.08,55.08,0,0,1,20.49-24.81q13.61-8.92,33.74-8.92,17.81,0,29.76,9.88t18.9,26.53a155.64,155.64,0,0,1,10,37.06v-1.53a147.34,147.34,0,0,1-10.07,35.14q-7,16.26-19,26.14t-29.9,9.89q-20,0-33.52-9.12a56.36,56.36,0,0,1-20.42-24.94Q63,369.43,63,349.4Zm52.13,2.68a65.88,65.88,0,0,0,2,16.77,23.43,23.43,0,0,0,6.73,11.8q4.79,4.33,13.47,4.34t14.55-3.7a21.11,21.11,0,0,0,8.33-10.71q2.61-7,1.88-16.84v-4.34a56.94,56.94,0,0,0-1-15.18,27.09,27.09,0,0,0-4.49-10.39,18.54,18.54,0,0,0-7.82-6,29.18,29.18,0,0,0-11.15-2q-8.4,0-13.32,4.33a23.85,23.85,0,0,0-7,11.87,64.7,64.7,0,0,0-2.1,17.34Zm42.72-128.57h52.42V416.75H163.36L157.86,384Z" transform="translate(-63.01 -220.76)"/><path class="cls-1" d="M221.89,336.76q0-23,8.68-41.06a66.85,66.85,0,0,1,25.64-28.46q16.94-10.42,41.7-10.42,25.05,0,42.07,10.42a66.26,66.26,0,0,1,25.63,28.46q8.61,18,8.61,41.06v2.75q0,22.88-8.61,41A65.8,65.8,0,0,1,340.05,409Q323.1,419.3,298.2,419.3T256.28,409a66.07,66.07,0,0,1-25.71-28.46q-8.69-18.11-8.68-41Zm52.27,2.75a87.17,87.17,0,0,0,2,19.33q2,8.61,7.16,13.54t14.92,4.92q9.56,0,14.77-4.92t7.17-13.54a87.8,87.8,0,0,0,1.95-19.33v-2.75a86.41,86.41,0,0,0-1.95-19.05q-2-8.61-7.17-13.75t-15.06-5.15q-9.56,0-14.7,5.15t-7.09,13.75a85.79,85.79,0,0,0-2,19.05Z" transform="translate(-63.01 -220.76)"/><path class="cls-1" d="M469.09,297.37H372.8V259.71h96.29Zm-25-76.61V362.39a23.05,23.05,0,0,0,1.3,8.61,7.9,7.9,0,0,0,4.71,4.42,26.88,26.88,0,0,0,9.34,1.3c2.7,0,5,0,6.81-.14a37.64,37.64,0,0,0,5.07-.58l-.15,38.81a77.74,77.74,0,0,1-13.47,3.4,94.21,94.21,0,0,1-14.91,1.09q-16.22,0-27.59-5.14a36.08,36.08,0,0,1-17.3-16.08q-5.94-10.92-5.94-28.16V220.76Z" transform="translate(-63.01 -220.76)"/><path class="cls-1" d="M490.24,391.06a25.45,25.45,0,0,1,8-19.11q8-7.68,20.56-7.68,12.75,0,20.64,7.68a27.18,27.18,0,0,1,0,38.3Q531.5,418,518.76,418t-20.56-7.75A25.68,25.68,0,0,1,490.24,391.06Z" transform="translate(-63.01 -220.76)"/></svg>