<svg id="Layer_1" xmlns="http://www.w3.org/2000/svg" viewBox="0 0 443.16 163.33"><title>from</title><path class="cls-1" d="M144.6,665.42H74.69V642.64H144.6ZM91.16,754.7V633.11q0-19.26,11.24-29.46t30.39-10.21a56,56,0,0,1,8.14.57,72.62,72.62,0,0,1,7.5,1.5l-.2,24.14A34.69,34.69,0,0,0,144,619q-2.22-.21-4.92-.21-7.87,0-12.22,3.67t-4.35,10.62V754.7Z" transform="translate(-74.69 -593.44)"/><path class="cls-1" d="M190.79,754.7H159.52V642.64h29.41l1.86,25.79Zm32.73-82.65c-1.52-.21-3.31-.39-5.39-.57s-3.93-.26-5.59-.26q-8.17,0-13.46,2.54a16.79,16.79,0,0,0-7.87,7.51,28.18,28.18,0,0,0-2.8,12.32l-6.11-2.69a83.31,83.31,0,0,1,3.73-26q3.72-11.4,11-17.87a25.51,25.51,0,0,1,17.6-6.47,42.52,42.52,0,0,1,5,.31,15.15,15.15,0,0,1,4.29,1Z" transform="translate(-74.69 -593.44)"/><path class="cls-1" d="M232.22,697.63q0-16.36,6.21-29.25A48.28,48.28,0,0,1,256.56,648q11.91-7.46,28.89-7.45,17.19,0,29.16,7.45a47.8,47.8,0,0,1,18.12,20.36q6.16,12.89,6.16,29.25v2.18a67.07,67.07,0,0,1-6.16,29.2,47.34,47.34,0,0,1-18.07,20.35q-11.91,7.41-29,7.41t-29.05-7.41A47.58,47.58,0,0,1,238.43,729a66.66,66.66,0,0,1-6.21-29.2Zm31.38,2.18a57.15,57.15,0,0,0,2.12,16.05,23.87,23.87,0,0,0,6.94,11.5q4.81,4.25,13,4.24t12.89-4.24a23.72,23.72,0,0,0,6.94-11.5,56.78,56.78,0,0,0,2.13-16.05v-2.18a56.49,56.49,0,0,0-2.13-15.89,24.39,24.39,0,0,0-6.94-11.66q-4.82-4.35-13.1-4.35-8.07,0-12.89,4.35a24.16,24.16,0,0,0-6.89,11.66,58,58,0,0,0-2.07,15.89Z" transform="translate(-74.69 -593.44)"/><path class="cls-1" d="M388.09,754.7H356.81V642.64h29.41l1.87,23.4Zm-12.95-59.35q0-15.95,5-28.27a43.41,43.41,0,0,1,14.76-19.42q9.79-7.1,24.29-7.09,14.91,0,24.34,9.16t9.42,30.19V754.7H421.64v-71q0-7.14-1.91-11a10.49,10.49,0,0,0-5.54-5.33,23.37,23.37,0,0,0-8.7-1.45,20.89,20.89,0,0,0-9.63,2.12,18.35,18.35,0,0,0-6.84,6.06,28.07,28.07,0,0,0-4,9.27,49.11,49.11,0,0,0-1.29,11.55Zm63.8-1.24a72.15,72.15,0,0,1,4.71-27.34,42.59,42.59,0,0,1,14.45-19.16q9.63-7,23.92-7a40.75,40.75,0,0,1,18.85,4.14q8.08,4.14,12.54,13.57t4.45,25.27V754.7H486.37V683.44q0-7.25-1.91-11a10.3,10.3,0,0,0-5.49-5.13,23.49,23.49,0,0,0-8.55-1.4,19.15,19.15,0,0,0-8.95,2,17.31,17.31,0,0,0-6.32,5.64,27.13,27.13,0,0,0-3.83,8.6,41.71,41.71,0,0,0-1.3,10.72Z" transform="translate(-74.69 -593.44)"/></svg>