<svg height="512" viewBox="0 0 512 512" width="512" xmlns="http://www.w3.org/2000/svg"><g id="Flat"><path d="m376 128-176-96-176 96v360h352z" fill="#e6e6e6"/><path d="m376 128h112v360h-112z" fill="#b3b3b3"/><path d="m56 152h288v336h-288z" fill="#b3b3b3"/><path d="m488 128-176-96h-112l176 96z" fill="#ccc"/><path d="m88 424h64v64h-64z" fill="#fc7"/><path d="m152 424h48v64h-48z" fill="#fcb73f"/><path d="m88 360h64v64h-64z" fill="#ff6f35"/><path d="m152 360h48v64h-48z" fill="#e05e1d"/><path d="m88 296h64v64h-64z" fill="#fc7"/><path d="m152 296h48v64h-48z" fill="#fcb73f"/><circle cx="256" cy="472" fill="#808080" r="16"/><path d="m224 448h208v16h-208z" fill="#3ea7ff"/><circle cx="320" cy="472" fill="#808080" r="16"/><circle cx="400" cy="472" fill="#808080" r="16"/><path d="m408 440h-16v-80a7.99716 7.99716 0 0 1 1.97949-5.26758l44.38672-50.72851-42.73633-.00391-51.62988 59.00586v28.99414h-16v-32a7.99716 7.99716 0 0 1 1.97949-5.26758l53.60938-61.26758a15.99774 15.99774 0 0 1 12.04101-5.46484h42.74024a16.0001 16.0001 0 0 1 12.041 26.53613l-42.41112 48.46973z" fill="#3ea7ff"/><path d="m352 392h48v64h-48z" fill="#e05e1d"/><path d="m240 392h64v64h-64z" fill="#fc7"/><path d="m304 392h48v64h-48z" fill="#fcb73f"/><path d="m400 424a16 16 0 0 1 16 16v16a0 0 0 0 1 0 0h-32a0 0 0 0 1 0 0v-16a16 16 0 0 1 16-16z" fill="#2b7cd4"/><path d="m288 328h64v64h-64z" fill="#fc7"/><path d="m352 328h48v64h-48z" fill="#fcb73f"/><path d="m56 152h288v32h-288z" fill="#3ea7ff"/><path d="m56 184h288v32h-288z" fill="#2b7cd4"/><path d="m56 216h288v32h-288z" fill="#104f91"/></g></svg>