<svg xmlns="http://www.w3.org/2000/svg" viewBox="0 0 811.55 996.04">
    <title>Asset 3white</title>
    <g id="Layer_2">
        <g id="Layer_1-2">
            <path class="cls-1"
                d="M519.93,544.58a172.76,172.76,0,0,0,23.77-39.15c10.81-25.07,7.5-55.19-8.64-78.57l-53-76.79a92.31,92.31,0,0,1-16.61-54c.24-16.25,2.54-40.6,12.12-64.31a82.34,82.34,0,0,1,17.27-26.48c12.26-13.13,23.85-25.53,40.52-25.53h.45c15.17.2,26.78,11.13,35.19,20.63,13.87,15.66,36,38.81,55.45,59.23,15.61,16.35,29.09,30.48,37,39.28,5.92,6.6,11.88,13.05,18,19.5,42.38,45,65.82,79.56,71.68,105.73,5.77,25.79,9.13,59,1.76,118.59,34.31-69.29,56.72-135.43,56.72-189C811.55,158.34,629.87,0,405.77,0S.16,158.34,0,353.67c0,24.34,4.78,51.6,13.35,80.78,21.7-35.9,48.47-75.56,79.84-113.51a647,647,0,0,1,67.33-70.58,18.25,18.25,0,0,1,24.3,27.24,611.8,611.8,0,0,0-63.49,66.59C90.56,381.41,64.22,420.78,43,456.25A76.29,76.29,0,0,0,39.23,493c2.37,16,7.81,27,14.09,39.81,3.27,6.64,6.64,13.49,9.87,21.61a4.35,4.35,0,0,1,.29,1.3c.5,1,1,2,1.51,2.93,37.61-44.4,116.37-132.54,213.19-213.56a18.25,18.25,0,0,1,23.43,28c-97,81.16-175.33,169.47-211,211.75.2,1.7.34,3.07.34,3.07a100.06,100.06,0,0,0,19.77,48.29l4,5.23c6.57,9.66,15.09,19.13,18.18,20.28a13.48,13.48,0,0,0,4.5-.4c141.47-76.24,250.85-207.56,252-208.89a18.25,18.25,0,0,1,28.15,23.24c-4.79,5.8-119,142.88-270.45,221.85,21.32,32.31,43.51,63.83,65.53,93.57C275.23,757.37,415.56,673,519.93,544.58Z" />
            <path class="cls-1"
                d="M717.45,432.06c-2.44-10.87-13.81-36.85-62.63-88.66-6.28-6.67-12.45-13.35-18.57-20.16-7.52-8.39-21.46-23-36.22-38.46-19.71-20.65-42-44.06-56.36-60.22-4.26-4.81-6.92-6.94-8.28-7.85-3.52,2.36-10.13,9.44-13.88,13.45a46.39,46.39,0,0,0-10.1,15.23c-7.47,18.5-9.27,38.05-9.46,51.19a55.91,55.91,0,0,0,10.14,32.75l53,76.79c23.23,33.65,27.87,77.24,12.12,113.77A207.36,207.36,0,0,1,548,568c-106.6,131.18-245.71,216.32-313,252.72,62.86,82,121.24,146.36,149.68,169.14,10.3,8.25,26.08,8.3,36.45.12,48.21-38,181.74-190.72,279.26-349.53C727.77,515.21,724.72,464.59,717.45,432.06Z" />
            <path class="cls-1"
                d="M29.09,480c.07.17.14.34.2.51,0-.3,0-.6,0-.89Z" />
        </g>
    </g>
</svg>